<svg  class="svg" xmlns='http://www.w3.org/2000/svg' 
	 height="100%" viewBox="0 0 32.6 40.5">
		<path d="M10.4,22.3h12c1.1,0,2-0.9,2-2c0-1.1-0.9-2-2-2h-12
				c-1.1,0-2,0.9-2,2C8.4,21.4,9.3,22.3,10.4,22.3z M31.8,8.9l-8-8c-0.4-0.4-0.9-0.6-1.4-0.6h-20c-1.1,0-2,0.9-2,2v36
				c0,1.1,0.9,2,2,2c1.1,0,2-0.9,2-2v-34h17.2l6.8,6.8v25.2h-18c-1.1,0-2,0.9-2,2c0,1.1,0.9,2,2,2h20c1.1,0,2-0.9,2-2v-28
				C32.4,9.7,32.2,9.2,31.8,8.9z M10.4,30.3h8c1.1,0,2-0.9,2-2c0-1.1-0.9-2-2-2h-8c-1.1,0-2,0.9-2,2C8.4,29.4,9.3,30.3,10.4,30.3z
				 M10.4,14.3h4c1.1,0,2-0.9,2-2c0-1.1-0.9-2-2-2h-4c-1.1,0-2,0.9-2,2C8.4,13.4,9.3,14.3,10.4,14.3z"/>
</svg>
