<svg  class="svg" xmlns='http://www.w3.org/2000/svg' 
	 height="100%" viewBox="0 0 36 36">
		<path d="M34,2h-4c0-1.1-0.9-2-2-2H8C6.9,0,6,0.9,6,2H2C0.9,2,0,2.9,0,4v8
			c0,0.7,0.3,1.3,0.9,1.7L6,17.1V20c0,0.7,0.3,1.3,0.9,1.7l6,4c0.3,0.2,0.7,0.3,1.1,0.3h6v2c0,0.8,0.4,1.4,1.1,1.8l2.9,1.4V32H12v-2
			c0-1.1-0.9-2-2-2c-1.1,0-2,0.9-2,2v4c0,1.1,0.9,2,2,2h16c1.1,0,2-0.9,2-2v-4c0-0.8-0.4-1.4-1.1-1.8L24,26.8v-1.7l5.1-3.4
			c0.6-0.4,0.9-1,0.9-1.7v-2.9l5.1-3.4c0.6-0.4,0.9-1,0.9-1.7V4C36,2.9,35.1,2,34,2z M26,18.9L21.4,22h-6.8L10,18.9V16
			c0-0.7-0.3-1.3-0.9-1.7L4,10.9V6h2v2c0,1.1,0.9,2,2,2c1.1,0,2-0.9,2-2V4h16V18.9z M32,10.9l-2,1.3V6h2V10.9z"/>
</svg>
