<svg  class="svg" xmlns='http://www.w3.org/2000/svg' 
	 height="100%" viewBox="0 0 36.4 36.4">
		<path d="M36,34.1l-2-13.6c-0.1-0.8-0.7-1.4-1.4-1.6l-7.5-2.3l-2-2h0
			c2.2-1.8,3.3-4.5,2.9-7.3C25.2,2.3,20.1-1,15,0.9c-2.8,1.1-4.8,3.7-5,6.7c-0.5,5.4,4.1,9.4,9.1,8.7l3.5,3.5
			c0.2,0.2,0.5,0.4,0.8,0.5l6.8,2.1l1.5,10H4.3l1.5-10.1l4.9-2c1-0.4,1.5-1.6,1.1-2.6c-0.4-1-1.6-1.5-2.6-1.1l-6,2.4
			c-0.7,0.3-1.1,0.9-1.2,1.6L0,34.1c0,0.1,0,0.2,0,0.3c0,1.1,0.9,2,2,2h32c0.1,0,0.2,0,0.3,0C35.4,36.2,36.1,35.2,36,34.1z M18,12.4
			c-2.2,0-4-1.8-4-4c0-2.2,1.8-4,4-4s4,1.8,4,4C22,10.6,20.2,12.4,18,12.4z"/>
</svg>
