<svg  class="svg" xmlns='http://www.w3.org/2000/svg' 
	 height="100%" viewBox="0 0 32.8 41">
		<path d="M29.1,9.2L16.5,21.8l-4.6-4.6c-0.8-0.7-2-0.7-2.8,0
			c-0.8,0.8-0.8,2,0,2.8l6,6c0.8,0.8,2,0.8,2.8,0l10.6-10.6V26c0,2.2-1.2,4.1-3,5.2l-9,5.1l-9-5.1c-1.9-1.1-3-3.1-3-5.2V6.2
			c4-1,8-1.5,12-1.5c4.5,0,9.1,0.7,13.4,1.9c1.1,0.3,2.2-0.3,2.5-1.4c0.3-1.1-0.3-2.2-1.4-2.5c-4.8-1.4-9.7-2.1-14.5-2.1
			C11.6,0.7,6.7,1.4,2,2.7C1.1,3,0.5,3.8,0.5,4.6V26c0,3.6,1.9,6.9,5,8.7l10,5.7c0.6,0.4,1.4,0.4,2,0l10-5.7c3.1-1.8,5-5.1,5-8.7
			V10.6C32.5,8.9,30.3,8,29.1,9.2z"/>
</svg>
