<svg  class="svg" xmlns='http://www.w3.org/2000/svg' 
	height="100%" viewBox="0 0 45 41">
		<path d="M43.8,19l-20-18c-0.8-0.7-1.9-0.7-2.7,0l-20,18
			c-1.4,1.2-0.5,3.5,1.3,3.5h4v16c0,1.1,0.9,2,2,2h6c1.1,0,2-0.9,2-2c0-1.1-0.9-2-2-2h-4v-16c0-1.1-0.9-2-2-2H7.7L22.5,5.2
			l14.8,13.3h-0.8c-1.1,0-2,0.9-2,2v16h-10v-4.3c3.5-0.9,6-4.1,6-7.8c0-5.1-4.8-9.1-10.1-7.7c-2.1,0.5-3.9,2-4.9,3.9
			c-2.5,4.8,0.1,10.3,5,11.6v6.3c0,1.1,0.9,2,2,2h14c1.1,0,2-0.9,2-2v-16h4C44.3,22.5,45.2,20.3,43.8,19z M18.5,24.5
			c0-2.2,1.8-4,4-4c2.2,0,4,1.8,4,4c0,2.2-1.8,4-4,4C20.3,28.5,18.5,26.7,18.5,24.5z"/>
</svg>
