<svg  class="svg" xmlns='http://www.w3.org/2000/svg' 
	  height="100%" viewBox="0 0 36.5 36.6">
		<path d="M18.2,24.3c-1.1,0-2,0.9-2,2v8c0,1.1,0.9,2,2,2c1.1,0,2-0.9,2-2
			v-8C20.2,25.2,19.4,24.3,18.2,24.3z M18.2,16.3h-8c-1.1,0-2,0.9-2,2c0,1.1,0.9,2,2,2h8c1.1,0,2-0.9,2-2
			C20.2,17.2,19.4,16.3,18.2,16.3z M10.2,24.3c-1.1,0-2,0.9-2,2v8c0,1.1,0.9,2,2,2c1.1,0,2-0.9,2-2v-8
			C12.2,25.2,11.4,24.3,10.2,24.3z M26.2,24.3c-1.1,0-2,0.9-2,2v8c0,1.1,0.9,2,2,2c1.1,0,2-0.9,2-2v-8
			C28.2,25.2,27.4,24.3,26.2,24.3z M34.2,0.3h-32c-1.1,0-2,0.9-2,2v32c0,1.1,0.9,2,2,2c1.1,0,2-0.9,2-2v-30h28v22c0,1.1,0.9,2,2,2
			c1.1,0,2-0.9,2-2v-24C36.2,1.2,35.4,0.3,34.2,0.3z M26.2,8.3h-16c-1.1,0-2,0.9-2,2c0,1.1,0.9,2,2,2h16c1.1,0,2-0.9,2-2
			C28.2,9.2,27.4,8.3,26.2,8.3z"/>
</svg>
